<svg width="70" height="80" viewBox="0 0 70 80" fill="none" xmlns="http://www.w3.org/2000/svg">
<path d="M64.551 57.4163C61.0677 65.2163 56.9843 71.183 52.451 75.1331C55.5343 69.3997 57.101 61.833 57.101 52.4996C57.101 39.0328 50.3009 24.1827 44.4342 13.8327C54.2676 5.66597 63.4344 0.465935 63.8677 0.215933C64.3177 -0.0507351 64.8844 -0.0674022 65.3677 0.149266C65.851 0.365934 66.201 0.782603 66.3177 1.29927C66.6177 2.73261 73.9177 36.3662 64.551 57.4163ZM7.28401 52.4996C7.28401 61.283 8.66735 68.4997 11.384 74.0831C8.40069 71.1164 5.31733 66.783 2.90065 60.483C-4.01606 42.4829 3.56732 14.7494 3.88399 13.5827C3.95293 13.3313 4.07989 13.0996 4.25465 12.9061C4.42941 12.7127 4.64711 12.563 4.89025 12.4689C5.13339 12.3749 5.39519 12.3393 5.65462 12.3648C5.91405 12.3903 6.16387 12.4764 6.38401 12.616C6.61734 12.766 10.984 15.566 16.5507 20.1161C11.7507 29.6828 7.28401 41.5162 7.28401 52.4996Z" fill="#FF6600"/>
<path d="M33.5345 2.95C32.9011 2.1 31.4845 2.1 30.8511 2.95C30.0178 4.06668 10.6177 30.5168 10.6177 52.5003C10.6177 65.3004 13.6177 74.4004 19.5677 79.5838C19.8677 79.8505 20.2511 80.0005 20.6511 80.0005H32.1845C31.2678 80.0005 30.5178 79.2505 30.5178 78.3338V72.0171L23.0344 64.5504C22.3844 63.9004 22.3844 62.8504 23.0344 62.1837C23.7011 61.5337 24.7511 61.5337 25.4011 62.1837L30.5178 67.3004V44.1169L23.0344 36.6502C22.8799 36.496 22.7573 36.3129 22.6737 36.1112C22.5901 35.9096 22.547 35.6935 22.547 35.4752C22.547 35.2569 22.5901 35.0408 22.6737 34.8392C22.7573 34.6375 22.8799 34.4544 23.0344 34.3002C23.1882 34.1419 23.3722 34.0161 23.5754 33.9302C23.7787 33.8443 23.9971 33.8001 24.2178 33.8001C24.4384 33.8001 24.6568 33.8443 24.8601 33.9302C25.0634 34.0161 25.2473 34.1419 25.4011 34.3002L30.5178 39.4169V33.5835C30.5178 32.6669 31.2678 31.9168 32.1845 31.9168C33.1011 31.9168 33.8512 32.6669 33.8512 33.5835V53.767L38.9845 48.6336C39.1387 48.4791 39.3219 48.3565 39.5235 48.2729C39.7251 48.1893 39.9412 48.1462 40.1595 48.1462C40.3778 48.1462 40.5939 48.1893 40.7956 48.2729C40.9972 48.3565 41.1803 48.4791 41.3345 48.6336C41.9845 49.3003 41.9845 50.3503 41.3345 51.0003L33.8512 58.4837V78.3338C33.8512 79.2505 33.1011 80.0005 32.1845 80.0005H43.7179C44.1179 80.0005 44.5179 79.8505 44.8179 79.5838C50.7513 74.4004 53.7679 65.3004 53.7679 52.5003C53.7679 30.5168 34.3512 4.06668 33.5345 2.95Z" fill="#FBB821"/>
</svg>
