<svg width="125" height="137" viewBox="0 0 125 137" fill="none" xmlns="http://www.w3.org/2000/svg">
<g clip-path="url(#clip0_371_6264)">
<path d="M24.731 72.4697L23.4529 75.6841C23.3229 75.9367 23.2777 76.2293 23.3267 76.5019C23.3756 76.7744 23.515 77.0061 23.716 77.1491C24.0975 77.3976 24.7955 77.2552 25.0098 76.7211L26.2879 73.5067C26.4179 73.2541 26.4631 72.9614 26.4141 72.6888C26.3652 72.4163 26.2258 72.1847 26.0247 72.0416C25.6433 71.7931 24.9453 71.9356 24.7262 72.4877L24.731 72.4697Z" fill="white"/>
<path d="M22.2605 80.1855C21.9417 81.0387 21.773 81.9409 21.762 82.8508C21.7339 84.182 23.7715 84.158 23.8006 82.8234C23.8173 82.0997 23.9619 81.3837 24.2275 80.7097C24.2917 80.4446 24.2533 80.1655 24.1201 79.9305C23.9869 79.6954 23.7692 79.5224 23.5123 79.4474C23.2518 79.3836 22.9762 79.4247 22.743 79.5622C22.5097 79.6998 22.3369 79.9231 22.2605 80.1855Z" fill="white"/>
<path d="M26.3282 77.8208L25.7216 80.097C25.3581 81.4613 27.5204 82.0414 27.8849 80.6735L28.4915 78.3973C28.856 77.0294 26.6927 76.453 26.3282 77.8208Z" fill="white"/>
<path d="M42.2706 61.7772C34.7233 56.8783 31.3362 47.9987 34.3816 39.3775C34.6758 38.5426 33.768 37.7981 32.9944 37.9988C24.6474 40.1618 22.2721 29.8448 26.1628 24.2328C29.4027 19.5402 38.9649 18.8936 40.5973 25.5188C40.6554 25.7048 40.7595 25.873 40.9 26.0077C41.0404 26.1425 41.2126 26.2394 41.4006 26.2895C41.5885 26.3396 41.7861 26.3412 41.975 26.2942C42.1639 26.2472 42.3379 26.1531 42.4808 26.0207C50.3406 18.6984 66.3758 18.1136 74.9406 24.4203C75.5361 24.8582 76.4371 24.3884 76.5997 23.7337C78.1524 17.5186 87.3608 15.6171 91.8489 19.8722C96.44 24.2187 94.9754 34.4178 87.7735 34.8518C87.5792 34.8606 87.3902 34.9185 87.224 35.0202C87.0579 35.1218 86.9201 35.2638 86.8234 35.4331C86.7267 35.6023 86.6742 35.7933 86.6709 35.9882C86.6675 36.1831 86.7134 36.3756 86.8043 36.5479C90.962 44.8351 90.1083 56.5491 82.2784 62.2959C74.5628 67.9575 62.124 69.8278 53.1694 66.3128C51.8227 65.7824 51.2503 67.9751 52.5869 68.4988C62.5722 72.4161 77.2588 70.0839 85.2661 62.8049C92.6592 56.0842 93.0343 43.9714 88.7569 35.417L87.7914 37.114C96.3581 36.605 99.279 25.4499 94.3414 19.2681C89.0444 12.6436 76.5298 14.7091 74.419 23.1526L76.0818 22.4669C66.6727 15.5363 49.4704 16.4244 40.8911 24.4164L42.7746 24.9184C40.6788 16.359 28.501 16.7274 24.2149 23.0915C19.2742 30.4339 23.1992 42.8789 33.5872 40.1789L32.1972 38.7954C28.8049 48.405 32.7936 58.3264 41.1146 63.7265C42.3358 64.5187 43.4696 62.5633 42.2558 61.7732L42.2706 61.7772Z" fill="white"/>
<path d="M35.3035 56.2945C30.1857 59.5121 26.0127 64.5285 22.9104 69.5882C18.9331 76.0291 13.2254 87.816 17.4294 95.4098C19.8265 99.7296 24.8606 99.5281 28.4391 96.8483C33.7953 92.8414 36.7518 85.2796 38.7228 79.1211C39.1672 77.7402 36.9613 77.1563 36.5179 78.5335C35.0584 83.0592 33.0773 87.6403 30.2916 91.5269C26.2985 97.091 18.8077 98.9782 18.5004 89.9714C18.1141 78.4685 26.7012 64.3906 36.4676 58.2667C37.6988 57.496 36.5553 55.5373 35.3183 56.3143L35.3035 56.2945Z" fill="white"/>
<path d="M84.0411 62.7767C89.6897 70.2962 94.147 78.6461 94.1818 88.1698C94.1985 89.6495 96.5148 89.6403 96.5106 88.1599C96.4956 78.2534 91.9421 69.4777 86.0499 61.6387C85.1647 60.457 83.1454 61.5882 84.0411 62.7767Z" fill="white"/>
<path d="M81.1746 95.5227C84.8944 92.4564 89.2504 90.4298 94.1492 90.0072C95.2786 89.9121 96.4142 89.8998 97.5468 89.9704L103.064 95.6866C103.707 97.9869 101.921 102.01 101.097 104.107C99.8419 107.289 99.1714 109.316 95.9108 110.72C92.6501 112.124 90.3089 111.853 86.755 111.115C81.7946 110.086 77.0561 108.025 72.4607 105.962C71.117 105.36 69.9521 107.299 71.3023 107.923C78.6146 111.203 87.5417 115.414 95.8146 113.85C101.991 112.689 104.347 103.694 105.135 98.4275C107.545 82.2985 87.0682 87.6952 79.54 93.9003C78.4019 94.8359 80.0491 96.4416 81.1706 95.5376L81.1746 95.5227Z" fill="white"/>
<path d="M100.437 89.5549C95.0899 89.3247 91.28 95.2225 89.2839 99.294C86.8546 104.258 87.1947 109.398 90.053 114.205C90.8139 115.487 92.8371 114.374 92.0762 113.092C89.7772 109.23 89.3735 105.14 91.1138 101.092C92.5423 97.7451 96.0634 91.6349 100.498 91.825C102.011 91.8899 101.966 89.6239 100.452 89.559L100.437 89.5549Z" fill="white"/>
<path d="M82.4454 77.3989C85.3579 81.4848 87.2179 86.2988 87.853 91.3951L89.8505 90.5021L89.64 90.189C88.8534 89.0158 86.9512 90.1671 87.7465 91.3507L87.957 91.6638C88.6816 92.7402 90.1156 92.0423 89.9555 90.767C89.2869 85.4757 87.3519 80.4785 84.3282 76.2343C83.5158 75.0863 81.6136 76.2377 82.4347 77.396L82.4454 77.3989Z" fill="white"/>
<path d="M27.8173 94.5746C24.8276 102.937 21.9531 119.301 35.2502 120.604C44.0463 121.473 54.6282 116.321 53.8933 106.502C53.2974 98.5188 46.8645 92.7122 38.7603 94.0237C30.29 95.3938 26.5118 103.449 25.5554 111.135C25.3753 112.582 27.659 112.553 27.8399 111.118C28.4736 106.004 30.4386 100.323 35.1863 97.6245C41.9618 93.7706 49.694 97.3622 51.3409 104.787C53.1675 113.05 46.3748 117.376 38.7682 118.151C24.2752 119.628 26.9234 103.84 30.0272 95.1555C30.5198 93.7757 28.3099 93.1948 27.8193 94.5671L27.8173 94.5746Z" fill="white"/>
<path d="M53.457 111.681C61.6398 110.974 70.2499 110.84 77.4956 106.292C78.7277 105.524 77.626 103.552 76.3929 104.325C69.4871 108.656 61.2512 108.724 53.454 109.397C52.0327 109.523 52.0273 111.809 53.457 111.681Z" fill="white"/>
<path d="M63.3906 52.062C63.4224 55.7012 70.2921 56.3014 71.5145 51.714C72.737 47.1266 63.3532 48.43 63.3906 52.062Z" fill="white"/>
<path d="M51.5087 46.3613C53.0021 46.7593 54.5354 45.8712 54.9334 44.3778C55.3314 42.8843 54.4434 41.351 52.9499 40.953C51.4564 40.555 49.9231 41.4431 49.5251 42.9366C49.1272 44.43 50.0152 45.9633 51.5087 46.3613Z" fill="white"/>
<path d="M85.3628 43.2186C85.2203 43.7534 84.9224 44.234 84.5067 44.5995C84.0911 44.965 83.5764 45.1991 83.0278 45.2721C82.4791 45.3451 81.9211 45.2537 81.4244 45.0096C80.9276 44.7655 80.5144 44.3795 80.237 43.9006C79.9596 43.4216 79.8305 42.8711 79.8659 42.3188C79.9014 41.7664 80.0998 41.237 80.4362 40.7974C80.7725 40.3578 81.2316 40.0279 81.7555 39.8492C82.2794 39.6706 82.8445 39.6513 83.3793 39.7939C84.0965 39.985 84.7084 40.4532 85.0803 41.0954C85.4523 41.7377 85.5539 42.5014 85.3628 43.2186Z" fill="white"/>
<path d="M61.2425 60.1612C61.5421 62.4865 63.6422 64.6456 65.9583 63.0635C68.4357 61.3667 68.9258 56.9334 69.2106 54.2102C69.3527 52.8216 67.2278 52.859 67.0866 54.244C66.9308 55.8164 66.6001 57.368 66.101 58.8683C65.9363 59.4672 65.6928 60.0413 65.3772 60.5748C64.6889 61.5871 63.5411 61.4774 63.3665 60.1274C63.1919 58.7774 61.0661 58.7761 61.2425 60.1612Z" fill="white"/>
<path d="M67.365 54.4106C67.3375 56.2902 67.4732 58.1629 67.7704 60.0051C67.9917 61.3551 68.1846 63.0914 69.4434 63.8041C72.1426 65.2988 74.1229 60.7549 74.1599 58.5685C74.174 57.0423 71.9523 57.1 71.9225 58.6261C71.9082 59.4606 71.6979 60.5739 71.0399 61.1572C70.1931 61.904 70.1488 60.5677 70.0229 59.8761C69.7032 58.0666 69.561 56.2211 69.5983 54.3686C69.6113 52.8464 67.3823 52.902 67.3609 54.4262L67.365 54.4106Z" fill="white"/>
<path d="M33.4752 25.3368C29.2285 24.2052 26.8492 31.9683 30.7739 33.8638C31.9819 34.451 33.1125 32.4146 31.8962 31.817C31.5185 31.6619 31.2075 31.3656 31.0151 30.9773C30.8226 30.589 30.7601 30.1321 30.8381 29.6823C31.0082 28.7246 31.8927 27.3481 32.8708 27.6046C34.1725 27.9514 34.7812 25.6807 33.4752 25.3368Z" fill="white"/>
<path d="M85.7285 24.697C86.4121 24.1967 87.5522 24.5558 88.043 25.1758C88.7258 26.0441 88.4551 27.187 87.9093 27.9962C87.0966 29.2037 89.1821 30.367 89.9929 29.1668C91.1346 27.4711 91.1918 24.9853 89.5461 23.4422C88.8122 22.7505 87.8413 22.3301 86.8208 22.2621C85.8003 22.1941 84.8024 22.4833 84.0195 23.074C82.832 23.9409 84.5489 25.5819 85.7246 24.7118L85.7285 24.697Z" fill="white"/>
</g>
<defs>
<clipPath id="clip0_371_6264">
<rect width="98.5075" height="115.299" fill="white" transform="translate(29.689) rotate(14.9216)"/>
</clipPath>
</defs>
</svg>
