<svg width="24" height="25" viewBox="0 0 24 25" fill="none" xmlns="http://www.w3.org/2000/svg">
<path d="M18 5.35449H6C4 5.35449 3 6.35449 3 8.35449V17.3545C3 19.3545 4 20.3545 6 20.3545H18C20 20.3545 21 19.3545 21 17.3545V8.35449C21 6.35449 20 5.35449 18 5.35449ZM17.9409 9.96049L13.0291 13.5325C12.7211 13.7565 12.36 13.8685 12 13.8685C11.64 13.8685 11.2779 13.7565 10.9709 13.5335L6.05908 9.96049C5.72408 9.71749 5.65004 9.24749 5.89404 8.91249C6.13704 8.57849 6.60389 8.5025 6.94189 8.7475L11.854 12.3195C11.942 12.3825 12.059 12.3835 12.147 12.3195L17.0591 8.7475C17.3961 8.5025 17.8639 8.57849 18.1069 8.91249C18.3509 9.24849 18.2759 9.71749 17.9409 9.96049Z" fill="#FF6600"/>
</svg>
