<svg width="54" height="48" viewBox="0 0 54 48" fill="none" xmlns="http://www.w3.org/2000/svg">
<path d="M45.0001 31.2572V38.1002C45.0001 40.1822 43.8988 42.1054 42.1378 43.2184C32.0458 49.5934 21.9507 49.5934 11.8587 43.2184C10.0977 42.1084 8.99714 40.1822 8.99714 38.1002V31.2572C8.99714 31.0292 9.23999 30.8855 9.44099 30.9935L20.4573 37.0203C22.4373 38.1003 24.7171 38.6704 26.9971 38.6704C29.2771 38.6704 31.5569 38.1003 33.5369 37.0203L44.5533 30.9935C44.7573 30.8825 45.0001 31.0292 45.0001 31.2572ZM50.8111 11.7155L31.3983 1.12245C28.6593 -0.371547 25.3468 -0.371547 22.6048 1.12245L3.19196 11.7155C-1.06204 14.0345 -1.06204 20.1425 3.19196 22.4645L22.6048 33.0575C25.3438 34.5515 28.6563 34.5515 31.3983 33.0575L50.8111 22.4645L48.7501 23.5895V36.0004C48.7501 37.2424 49.7581 38.2504 51.0001 38.2504C52.2421 38.2504 53.2501 37.2424 53.2501 36.0004V20.0134C54.7621 17.2174 53.9581 13.4315 50.8111 11.7155Z" fill="white"/>
</svg>
