<svg width="27" height="28" viewBox="0 0 27 28" fill="none" xmlns="http://www.w3.org/2000/svg">
<g clip-path="url(#clip0_1120_10539)">
<path d="M24.8038 0.888672H2.07983C0.991292 0.888672 0.111084 1.74805 0.111084 2.81055V25.6283C0.111084 26.6908 0.991292 27.5553 2.07983 27.5553H24.8038C25.8923 27.5553 26.7777 26.6908 26.7777 25.6335V2.81055C26.7777 1.74805 25.8923 0.888672 24.8038 0.888672ZM8.02254 23.6126H4.06421V10.8835H8.02254V23.6126ZM6.04338 9.14909C4.77254 9.14909 3.7465 8.12305 3.7465 6.85742C3.7465 5.5918 4.77254 4.56575 6.04338 4.56575C7.309 4.56575 8.33504 5.5918 8.33504 6.85742C8.33504 8.11784 7.309 9.14909 6.04338 9.14909ZM22.835 23.6126H18.8819V17.4251C18.8819 15.9512 18.8559 14.0501 16.8246 14.0501C14.7673 14.0501 14.4548 15.6595 14.4548 17.321V23.6126H10.5069V10.8835H14.2986V12.623H14.3507C14.8767 11.623 16.1684 10.5658 18.0903 10.5658C22.0955 10.5658 22.835 13.2012 22.835 16.6283V23.6126Z" fill="#25314C"/>
</g>
<defs>
<clipPath id="clip0_1120_10539">
<rect width="26.6667" height="26.6667" fill="white" transform="translate(0.111084 0.888672)"/>
</clipPath>
</defs>
</svg>
