<svg width="46" height="80" viewBox="0 0 46 80" fill="none" xmlns="http://www.w3.org/2000/svg">
<path d="M24.3538 56.7797L24.4372 78.3331C24.4372 79.2499 23.7037 80 22.7869 80H22.7703C21.8534 80 21.1033 79.2666 21.1033 78.3497L21.02 56.7797C9.30146 55.9796 0 46.178 0 34.2595C0 33.3427 0.750118 32.5925 1.66693 32.5925C9.83488 32.5925 17.0027 36.9432 20.9866 43.4609L20.9366 31.6924C17.036 27.4584 14.919 22.0075 14.9857 16.2566C15.0357 10.2724 17.3861 4.67148 21.6034 0.487483C21.7576 0.332953 21.9408 0.210355 22.1424 0.126706C22.3441 0.0430567 22.5603 0 22.7786 0C22.9969 0 23.2131 0.0430567 23.4147 0.126706C23.6164 0.210355 23.7996 0.332953 23.9538 0.487483C28.1596 4.661 30.5393 10.3316 30.5715 16.2566V16.4567C30.5715 22.3076 28.3378 27.8418 24.2705 32.0925L24.3205 43.5776C28.2711 36.9932 35.4723 32.5925 43.6902 32.5925C44.607 32.5925 45.3571 33.3427 45.3571 34.2595C45.3571 46.178 36.0723 55.9796 24.3538 56.7797Z" fill="#FBB821"/>
<path d="M16.7971 31.9096C13.4049 27.3672 11.5879 21.9247 11.6513 16.2188C11.6679 14.4469 11.8646 12.7049 12.2247 11.0097C9.02402 9.35097 5.47132 8.48652 1.86639 8.48926C0.932912 8.48926 0.199463 9.22271 0.199463 10.1562C0.199463 20.5028 7.25057 29.2692 16.7971 31.9096ZM33.9048 16.4572C33.9048 22.0814 32.0812 27.4472 28.7556 31.9096C38.3071 29.2725 45.3732 20.5045 45.3732 10.1562C45.3732 9.22271 44.6231 8.48926 43.7063 8.48926C40.0324 8.48926 36.4985 9.37274 33.3297 11.0163C33.6955 12.7302 33.8882 14.4764 33.9048 16.2288V16.4572Z" fill="#FF6600"/>
</svg>
