<svg width="137" height="137" viewBox="0 0 137 137" fill="none" xmlns="http://www.w3.org/2000/svg">
<g clip-path="url(#clip0_1120_10326)">
<path d="M38.0163 55.8565C45.3198 50.2518 51.7534 43.5679 57.0699 36.0617C57.9102 34.8814 56.0461 33.8723 55.2111 35.0525C50.1299 42.232 43.9837 48.6285 37.0071 53.9977C35.8702 54.8705 36.8711 56.7428 38.0163 55.8565Z" fill="white"/>
<path d="M83.6667 107.863C87.0187 105.886 90.0254 103.376 92.569 100.431C93.5112 99.3419 91.9208 97.7352 90.9704 98.8327C88.5663 101.63 85.7209 104.016 82.5464 105.895C81.299 106.636 82.4167 108.601 83.664 107.86L83.6667 107.863Z" fill="white"/>
<path d="M101.508 91.6079L106.252 85.2324C107.107 84.0835 105.145 82.9725 104.292 84.1132L99.5483 90.4888C98.6931 91.6377 100.658 92.7514 101.508 91.6079Z" fill="white"/>
<path d="M52.2569 79.0942C54.826 81.841 57.5566 84.4346 60.4283 86.8558C61.5259 87.7804 62.8733 86.4547 61.7648 85.5193C58.8931 83.0982 56.1625 80.5045 53.5934 77.7577C52.6001 76.6961 51.2664 78.0353 52.2569 79.0942Z" fill="white"/>
<path d="M67.4448 91.8666L68.1871 91.5412C69.6356 90.8977 69.3482 88.7605 67.9036 89.3954L67.1637 89.7232C65.7128 90.3643 66.0032 92.4984 67.4448 91.8666Z" fill="white"/>
<path d="M99.2344 106.133C97.5914 107.646 94.6141 111.528 92.4885 111.947C90.9934 112.243 87.7375 109.847 86.4109 109.091C77.9207 104.303 69.9378 98.6805 62.5778 92.3063C48.391 79.8995 38.0698 62.9075 35.0487 44.0715C34.7644 42.2956 32.8404 33.3182 34.6853 31.6641C36.2725 30.2458 45.8808 33.5992 47.9149 34.2414C66.0985 39.9152 82.9123 51.4666 94.0247 66.8987C99.0202 73.9247 103.602 81.2393 107.748 88.8064C108.649 90.4287 110.752 93.0246 110.922 94.9418C110.798 93.7087 110.662 94.4548 109.273 95.8328C108.217 96.8892 107.232 98.0274 106.254 99.1573C105.277 100.287 106.885 101.879 107.854 100.757C109.112 99.2977 112.457 97.1084 113.078 95.4455C113.587 94.086 112.212 92.3002 111.639 91.1836C107.55 83.3498 102.979 75.7827 97.9525 68.5252C86.1425 51.3365 68.9774 38.5696 49.0652 32.1644C45.7565 31.1126 37.4239 27.7318 33.8174 29.6705C31.1994 31.0838 31.982 35.9699 32.1237 38.3573C33.3028 58.2014 43.4402 77.0613 57.4135 90.6464C66.0984 99.0874 76.5 106.406 87.1903 112.106C88.6624 112.896 91.0303 114.665 92.8698 114.275C95.6429 113.682 98.8618 109.515 100.846 107.689C101.937 106.685 100.335 105.088 99.2458 106.089L99.2344 106.133Z" fill="white"/>
<path d="M36.1842 50.829C42.355 46.4058 47.9245 41.1882 52.743 35.3164C53.6823 34.1701 52.0913 32.5623 51.1436 33.717C46.4723 39.4413 41.0688 44.5314 35.0781 48.8507C33.8776 49.7134 34.9644 51.6892 36.1842 50.829Z" fill="white"/>
<path d="M49.6818 48.5395C45.4405 52.0122 44.2206 58.7447 47.6631 63.3582C51.1056 67.9716 57.9485 68.2226 62.0267 64.5923C65.9285 61.1162 67.0716 55.1904 64.3404 50.5457C61.1053 45.0392 54.6276 45.1696 49.9319 48.3668C48.7382 49.1734 49.8858 51.1775 51.0711 50.3516C54.8968 47.7644 60.0875 47.2956 62.6282 52.0644C64.4691 55.5315 63.6133 59.7877 60.9629 62.4823C58.0063 65.4887 52.8389 65.8181 49.8194 62.468C46.5204 58.8003 47.8756 53.0108 51.3267 50.1844C52.4233 49.2482 50.7923 47.628 49.6818 48.5395Z" fill="white"/>
<path d="M88.6984 109.703C91.2898 107.957 93.6601 105.93 95.7758 103.652C96.7644 102.586 94.8687 100.685 93.8839 101.76C91.915 103.899 89.7088 105.804 87.2961 107.45C86.0942 108.265 87.4883 110.525 88.6984 109.703Z" fill="white"/>
<path d="M103.276 95.8303C105.525 94.0941 107.533 92.0529 109.23 89.7771C110.07 88.6428 108.309 87.7204 107.474 88.8494C106.016 90.8098 104.292 92.5704 102.361 94.0713C101.256 94.9301 102.174 96.6914 103.289 95.8271L103.276 95.8303Z" fill="white"/>
<path d="M87.8549 94.5082C88.6432 97.1099 91.5245 99.3354 93.3833 101.139C96.6692 104.296 100.149 107.245 103.802 109.97C105.628 111.327 115.135 118.47 114.454 111.533C114.104 107.876 110.775 103.924 108.818 101.036C106.16 97.1207 103.312 93.3248 100.343 89.6447C98.7211 87.6424 97.3799 85.4192 94.4769 86.0495C91.0061 86.7953 87.8184 90.7677 87.8099 94.2317C87.8071 95.6951 90.0817 95.6823 90.0845 94.2188C90.0959 90.2451 94.6225 86.9557 97.506 89.7731C99.4356 91.6586 101.044 94.1707 102.654 96.3266C104.552 98.87 106.407 101.457 108.132 104.125C109.104 105.649 112.398 109.642 112.127 111.576C111.956 112.75 111.965 112.136 110.651 111.721C109.664 111.406 108.676 110.595 107.819 110.03C105.22 108.28 102.73 106.375 100.362 104.325C97.457 101.872 91.2263 97.7969 90.0478 93.9286C89.6364 92.525 87.4325 93.1102 87.8549 94.5082Z" fill="white"/>
<path d="M73.7237 100.979C70.0917 103.27 66.5962 107.482 68.7262 111.792C71.6097 117.663 80.3049 123.455 85.9942 126.378C88.1607 127.494 92.8138 128.815 91.7457 124.659C90.5518 120.015 78.0401 113.776 81.8079 108.334C82.6666 107.098 80.675 105.993 79.8191 107.226C77.7888 110.154 79.5623 113.283 81.324 115.75C82.012 116.704 89.8304 124.528 89.4112 125.204C88.6185 126.484 76.8948 116.968 76.0289 116.198C73.5242 113.97 69.1739 110.896 70.9044 106.889C71.5878 105.314 73.4147 103.832 74.8317 102.962C76.106 102.158 75.0009 100.166 73.7238 100.973L73.7237 100.979Z" fill="white"/>
<path d="M102.073 75.2942C103.829 73.7455 105.883 71.9603 108.107 71.13C111.905 69.715 113.45 72.5711 115.524 75.4068C117.369 77.9347 119.057 80.5713 120.651 83.2526C121.834 85.2405 122.721 87.9885 124.136 89.7768C124.986 90.8455 125.084 90.4689 124.498 89.3441C123.992 88.3634 122.485 87.2783 121.717 86.4671C119.742 84.3802 117.787 81.9507 115.394 80.3255C112.002 77.9994 108.737 79.602 106.166 82.4954C105.221 83.555 106.821 85.1649 107.771 84.0999C112.167 79.1567 115.587 83.2159 118.959 86.7589C120.272 88.1358 122.826 92.0491 124.873 92.3529C128.945 92.9547 125.184 86.7995 124.468 85.4653C121.801 80.5222 117.859 72.0382 112.817 68.9788C108.634 66.4431 103.456 71.058 100.46 73.6815C99.3925 74.6235 101 76.2254 102.065 75.286L102.073 75.2942Z" fill="white"/>
<path d="M18.0114 30.4734C19.4996 31.1007 21.0289 31.6152 22.586 32.0126C24.0852 32.3897 24.6398 30.1108 23.1288 29.7164C21.5726 29.318 20.0442 28.8025 18.557 28.1743C17.9535 27.9187 17.2684 28.4343 17.1426 29.0042C17.0762 29.3062 17.1298 29.6269 17.292 29.8999C17.4543 30.1729 17.7129 30.3772 18.0142 30.4706L18.0114 30.4734Z" fill="white"/>
<path d="M23.673 22.0905L26.1919 24.6094C27.1517 25.5692 28.7348 23.9861 27.775 23.0263L25.2561 20.5074C24.2988 19.5501 22.7132 21.1307 23.673 22.0905Z" fill="white"/>
<path d="M32.0079 16.5706C32.5045 17.6515 32.8374 18.8135 32.9967 20.0221C33.2155 21.5462 35.6075 20.7859 35.39 19.294C35.1861 17.891 34.7823 16.5442 34.1903 15.2929C33.5572 13.9334 31.3875 15.2484 32.015 16.6024L32.0079 16.5706Z" fill="white"/>
</g>
<defs>
<clipPath id="clip0_1120_10326">
<rect width="62.6866" height="129.851" fill="white" transform="translate(0 44.3262) rotate(-45)"/>
</clipPath>
</defs>
</svg>
