<svg width="28" height="28" viewBox="0 0 28 28" fill="none" xmlns="http://www.w3.org/2000/svg">
<g clip-path="url(#clip0_1120_10538)">
<path d="M9.16689 25.0552C19.2273 25.0552 24.7315 16.7182 24.7315 9.49058C24.7315 9.2562 24.7263 9.01662 24.7159 8.78224C25.7866 8.00791 26.7106 7.04879 27.4445 5.94995C26.4473 6.39362 25.3885 6.68338 24.3044 6.80933C25.4459 6.12507 26.3006 5.05014 26.7101 3.78381C25.6362 4.42024 24.4618 4.86919 23.2372 5.11141C22.4121 4.23469 21.3211 3.65419 20.133 3.45968C18.9449 3.26516 17.7258 3.46745 16.6642 4.03528C15.6026 4.60311 14.7576 5.50485 14.2599 6.60108C13.7622 7.69731 13.6394 8.92697 13.9106 10.1C11.7362 9.99083 9.60887 9.42596 7.6667 8.44195C5.72453 7.45795 4.01082 6.07677 2.63669 4.38797C1.93828 5.59211 1.72456 7.017 2.03898 8.37305C2.35339 9.72911 3.17235 10.9146 4.32939 11.6885C3.46075 11.6609 2.61114 11.427 1.85075 11.0062V11.0739C1.84997 12.3376 2.28683 13.5625 3.08706 14.5405C3.8873 15.5185 5.00152 16.1891 6.24033 16.4385C5.43567 16.6587 4.59115 16.6907 3.7721 16.5322C4.12167 17.619 4.8018 18.5695 5.71758 19.2511C6.63335 19.9327 7.73908 20.3114 8.88044 20.3343C6.94275 21.8564 4.54914 22.682 2.08512 22.6781C1.64815 22.6774 1.21161 22.6506 0.777832 22.5979C3.28101 24.2038 6.19287 25.0567 9.16689 25.0552Z" fill="#25314C"/>
</g>
<defs>
<clipPath id="clip0_1120_10538">
<rect width="26.6667" height="26.6667" fill="white" transform="translate(0.777832 0.888672)"/>
</clipPath>
</defs>
</svg>
