<svg width="1600" height="48" viewBox="0 0 1600 48" fill="none" xmlns="http://www.w3.org/2000/svg">
<path d="M-10 -971C-10 -971 49.6554 -932.077 91.1109 -932.077C111.839 -932.077 126.753 -941.808 141.666 -951.539C156.58 -961.269 171.494 -971 192.222 -971C212.95 -971 227.863 -961.269 242.777 -951.539C257.691 -941.808 272.605 -932.077 293.333 -932.077C314.061 -932.077 328.974 -941.808 343.888 -951.539C358.802 -961.269 373.716 -971 394.444 -971C415.171 -971 430.085 -961.269 444.999 -951.539C459.913 -941.808 474.827 -932.077 495.555 -932.077C516.282 -932.077 531.196 -941.808 546.11 -951.539C561.024 -961.269 575.938 -971 596.666 -971C617.393 -971 632.307 -961.269 647.221 -951.539C662.135 -941.808 677.049 -932.077 697.776 -932.077C718.504 -932.077 733.418 -941.808 748.332 -951.539C763.246 -961.269 778.16 -971 798.887 -971C819.615 -971 834.529 -961.269 849.443 -951.539C864.357 -941.808 879.271 -932.077 899.998 -932.077C920.726 -932.077 935.64 -941.808 950.554 -951.539C965.468 -961.269 980.381 -971 1001.11 -971C1021.84 -971 1036.75 -961.269 1051.66 -951.539C1066.58 -941.808 1081.49 -932.077 1102.22 -932.077C1122.95 -932.077 1137.86 -941.808 1152.78 -951.539C1167.69 -961.269 1182.6 -971 1203.33 -971C1224.06 -971 1238.97 -961.269 1253.89 -951.539C1268.8 -941.808 1283.71 -932.077 1304.44 -932.077C1325.17 -932.077 1340.08 -941.808 1355 -951.539C1369.91 -961.269 1384.83 -971 1405.55 -971C1426.28 -971 1441.19 -961.269 1456.11 -951.539C1471.02 -941.808 1485.94 -932.077 1506.66 -932.077C1548.12 -932.077 1607.77 -971 1607.77 -971V-901.349H1610V48C1610 48 1550.26 9.07745 1508.75 9.07745C1487.99 9.07745 1473.06 18.8082 1458.12 28.5388C1443.19 38.2695 1428.26 48 1407.5 48C1386.74 48 1371.81 38.2695 1356.88 28.5388C1341.94 18.8082 1327.01 9.07745 1306.25 9.07745C1285.49 9.07745 1270.56 18.8082 1255.62 28.5388C1240.69 38.2695 1225.76 48 1205 48C1184.24 48 1169.31 38.2695 1154.37 28.5388C1139.44 18.8082 1124.51 9.07745 1103.75 9.07745C1082.99 9.07745 1068.06 18.8082 1053.12 28.5388C1038.19 38.2695 1023.26 48 1002.5 48C981.744 48 966.809 38.2695 951.875 28.5388C936.941 18.8082 922.006 9.07745 901.25 9.07745C880.494 9.07745 865.559 18.8082 850.625 28.5388C835.691 38.2695 820.756 48 800 48C779.244 48 764.309 38.2695 749.375 28.5388C734.441 18.8082 719.506 9.07745 698.75 9.07745C677.994 9.07745 663.059 18.8082 648.125 28.5388C633.191 38.2695 618.256 48 597.5 48C576.744 48 561.809 38.2695 546.875 28.5388C531.941 18.8082 517.006 9.07745 496.25 9.07745C475.494 9.07745 460.559 18.8082 445.625 28.5388C430.691 38.2695 415.756 48 395 48C374.244 48 359.309 38.2695 344.375 28.5388C329.441 18.8082 314.506 9.07745 293.75 9.07745C272.994 9.07745 258.059 18.8082 243.125 28.5388C228.191 38.2695 213.256 48 192.5 48C171.744 48 156.809 38.2695 141.875 28.5388C126.941 18.8082 112.006 9.07745 91.25 9.07745C49.7375 9.07745 -9.99996 48 -9.99996 48L-10 -971Z" fill="#FF6600"/>
</svg>
