<svg width="1600" height="48" viewBox="0 0 1600 48" fill="none" xmlns="http://www.w3.org/2000/svg">
  <path d="M-10 0C-10 0 49.6554 38.9226 91.1109 38.9226C111.839 38.9226 126.753 29.1919 141.666 19.4613C156.58 9.73064 171.494 0 192.222 0C212.95 0 227.863 9.73064 242.777 19.4613C257.691 29.1919 272.605 38.9226 293.333 38.9226C314.061 38.9226 328.974 29.1919 343.888 19.4613C358.802 9.73063 373.716 0 394.444 0C415.171 0 430.085 9.73064 444.999 19.4613C459.913 29.1919 474.827 38.9226 495.555 38.9226C516.282 38.9226 531.196 29.1919 546.11 19.4613C561.024 9.73063 575.938 0 596.666 0C617.393 0 632.307 9.73064 647.221 19.4613C662.135 29.1919 677.049 38.9226 697.776 38.9226C718.504 38.9226 733.418 29.1919 748.332 19.4613C763.246 9.73064 778.16 0 798.887 0C819.615 0 834.529 9.73064 849.443 19.4613C864.357 29.1919 879.271 38.9226 899.998 38.9226C920.726 38.9226 935.64 29.1919 950.554 19.4613C965.468 9.73064 980.381 0 1001.11 0C1021.84 0 1036.75 9.73065 1051.66 19.4613C1066.58 29.1919 1081.49 38.9226 1102.22 38.9226C1122.95 38.9226 1137.86 29.1919 1152.78 19.4613C1167.69 9.73063 1182.6 0 1203.33 0C1224.06 0 1238.97 9.73064 1253.89 19.4613C1268.8 29.1919 1283.71 38.9226 1304.44 38.9226C1325.17 38.9226 1340.08 29.1919 1355 19.4613C1369.91 9.73064 1384.83 0 1405.55 0C1426.28 0 1441.19 9.73064 1456.11 19.4613C1471.02 29.1919 1485.94 38.9226 1506.66 38.9226C1548.12 38.9226 1607.77 0 1607.77 0V69.6509H1610V1019C1610 1019 1550.26 980.077 1508.75 980.077C1487.99 980.077 1473.06 989.808 1458.12 999.539C1443.19 1009.27 1428.26 1019 1407.5 1019C1386.74 1019 1371.81 1009.27 1356.88 999.539C1341.94 989.808 1327.01 980.077 1306.25 980.077C1285.49 980.077 1270.56 989.808 1255.62 999.539C1240.69 1009.27 1225.76 1019 1205 1019C1184.24 1019 1169.31 1009.27 1154.37 999.539C1139.44 989.808 1124.51 980.077 1103.75 980.077C1082.99 980.077 1068.06 989.808 1053.12 999.539C1038.19 1009.27 1023.26 1019 1002.5 1019C981.744 1019 966.809 1009.27 951.875 999.539C936.941 989.808 922.006 980.077 901.25 980.077C880.494 980.077 865.559 989.808 850.625 999.539C835.691 1009.27 820.756 1019 800 1019C779.244 1019 764.309 1009.27 749.375 999.539C734.441 989.808 719.506 980.077 698.75 980.077C677.994 980.077 663.059 989.808 648.125 999.539C633.191 1009.27 618.256 1019 597.5 1019C576.744 1019 561.809 1009.27 546.875 999.539C531.941 989.808 517.006 980.077 496.25 980.077C475.494 980.077 460.559 989.808 445.625 999.539C430.691 1009.27 415.756 1019 395 1019C374.244 1019 359.309 1009.27 344.375 999.539C329.441 989.808 314.506 980.077 293.75 980.077C272.994 980.077 258.059 989.808 243.125 999.539C228.191 1009.27 213.256 1019 192.5 1019C171.744 1019 156.809 1009.27 141.875 999.539C126.941 989.808 112.006 980.077 91.25 980.077C49.7375 980.077 -9.99996 1019 -9.99996 1019L-10 0Z" fill="#FF6600"/>
</svg>
